<?xml version="1.0" encoding="UTF-8" standalone="no"?>
<!DOCTYPE svg PUBLIC "-//W3C//DTD SVG 1.1//EN"
 "http://www.w3.org/Graphics/SVG/1.1/DTD/svg11.dtd">
<!-- Generated by graphviz version 2.47.0 (20210316.0004)
 -->
<!-- Title: dependencies Pages: 1 -->
<svg width="1908pt" height="211pt"
 viewBox="0.00 0.00 1908.00 211.00" xmlns="http://www.w3.org/2000/svg" xmlns:xlink="http://www.w3.org/1999/xlink">
<g id="graph0" class="graph" transform="scale(1 1) rotate(0) translate(4 207)">
<title>dependencies</title>
<polygon fill="white" stroke="transparent" points="-4,4 -4,-207 1904,-207 1904,4 -4,4"/>
<text text-anchor="start" x="929.01" y="-42.4" font-family="sans-serif" font-weight="bold" font-size="14.00">Legend</text>
<polygon fill="#ffffb3" stroke="transparent" points="716,-10 716,-30 736,-30 736,-10 716,-10"/>
<text text-anchor="start" x="739.63" y="-15.4" font-family="sans-serif" font-size="14.00"> &#160;Declarations</text>
<polygon fill="#8dd3c7" stroke="transparent" points="829,-10 829,-30 849,-30 849,-10 829,-10"/>
<text text-anchor="start" x="852.73" y="-15.4" font-family="sans-serif" font-size="14.00"> &#160;Module</text>
<polygon fill="#80b1d3" stroke="transparent" points="915,-10 915,-30 935,-30 935,-10 915,-10"/>
<text text-anchor="start" x="938.78" y="-15.4" font-family="sans-serif" font-size="14.00"> &#160;Bootstrap</text>
<polygon fill="#fdb462" stroke="transparent" points="1012,-10 1012,-30 1032,-30 1032,-10 1012,-10"/>
<text text-anchor="start" x="1035.67" y="-15.4" font-family="sans-serif" font-size="14.00"> &#160;Providers</text>
<polygon fill="#fb8072" stroke="transparent" points="1108,-10 1108,-30 1128,-30 1128,-10 1108,-10"/>
<text text-anchor="start" x="1131.73" y="-15.4" font-family="sans-serif" font-size="14.00"> &#160;Exports</text>
<g id="clust1" class="cluster">
<title>cluster_HomepageModule</title>
<polygon fill="none" stroke="black" stroke-dasharray="1,5" points="8,-70 8,-195 1892,-195 1892,-70 8,-70"/>
</g>
<g id="clust2" class="cluster">
<title>cluster_HomepageModule_declarations</title>
<polygon fill="none" stroke="black" points="440,-78 440,-130 1884,-130 1884,-78 440,-78"/>
</g>
<g id="clust15" class="cluster">
<title>cluster_HomepageModule_providers</title>
<polygon fill="none" stroke="black" points="278,-78 278,-130 432,-130 432,-78 278,-78"/>
</g>
<g id="clust12" class="cluster">
<title>cluster_HomepageModule_imports</title>
<polygon fill="none" stroke="black" points="16,-78 16,-130 270,-130 270,-78 16,-78"/>
</g>
<!-- AboutComponent -->
<g id="node1" class="node">
<title>AboutComponent</title>
<polygon fill="#ffffb3" stroke="black" points="1876.33,-122 1759.67,-122 1759.67,-86 1876.33,-86 1876.33,-122"/>
<text text-anchor="middle" x="1818" y="-99.8" font-family="Times,serif" font-size="14.00">AboutComponent</text>
</g>
<!-- HomepageModule -->
<g id="node10" class="node">
<title>HomepageModule</title>
<polygon fill="#8dd3c7" stroke="black" points="970.19,-187 967.19,-191 946.19,-191 943.19,-187 849.81,-187 849.81,-151 970.19,-151 970.19,-187"/>
<text text-anchor="middle" x="910" y="-164.8" font-family="Times,serif" font-size="14.00">HomepageModule</text>
</g>
<!-- AboutComponent&#45;&gt;HomepageModule -->
<g id="edge1" class="edge">
<title>AboutComponent&#45;&gt;HomepageModule</title>
<path fill="none" stroke="black" d="M1818,-122.09C1818,-145.13 1818,-182 1818,-182 1818,-182 980.28,-182 980.28,-182"/>
<polygon fill="black" stroke="black" points="980.28,-178.5 970.28,-182 980.28,-185.5 980.28,-178.5"/>
</g>
<!-- FooterComponent -->
<g id="node2" class="node">
<title>FooterComponent</title>
<polygon fill="#ffffb3" stroke="black" points="1741.88,-122 1624.12,-122 1624.12,-86 1741.88,-86 1741.88,-122"/>
<text text-anchor="middle" x="1683" y="-99.8" font-family="Times,serif" font-size="14.00">FooterComponent</text>
</g>
<!-- FooterComponent&#45;&gt;HomepageModule -->
<g id="edge2" class="edge">
<title>FooterComponent&#45;&gt;HomepageModule</title>
<path fill="none" stroke="black" d="M1683,-122.28C1683,-143.32 1683,-175 1683,-175 1683,-175 980.33,-175 980.33,-175"/>
<polygon fill="black" stroke="black" points="980.33,-171.5 970.33,-175 980.33,-178.5 980.33,-171.5"/>
</g>
<!-- HeaderAppNameComponent -->
<g id="node3" class="node">
<title>HeaderAppNameComponent</title>
<polygon fill="#ffffb3" stroke="black" points="1605.78,-122 1426.22,-122 1426.22,-86 1605.78,-86 1605.78,-122"/>
<text text-anchor="middle" x="1516" y="-99.8" font-family="Times,serif" font-size="14.00">HeaderAppNameComponent</text>
</g>
<!-- HeaderAppNameComponent&#45;&gt;HomepageModule -->
<g id="edge3" class="edge">
<title>HeaderAppNameComponent&#45;&gt;HomepageModule</title>
<path fill="none" stroke="black" d="M1516,-122.11C1516,-141.34 1516,-169 1516,-169 1516,-169 980.32,-169 980.32,-169"/>
<polygon fill="black" stroke="black" points="980.32,-165.5 970.32,-169 980.32,-172.5 980.32,-165.5"/>
</g>
<!-- HeaderComponent -->
<g id="node4" class="node">
<title>HeaderComponent</title>
<polygon fill="#ffffb3" stroke="black" points="1407.74,-122 1286.26,-122 1286.26,-86 1407.74,-86 1407.74,-122"/>
<text text-anchor="middle" x="1347" y="-99.8" font-family="Times,serif" font-size="14.00">HeaderComponent</text>
</g>
<!-- HeaderComponent&#45;&gt;HomepageModule -->
<g id="edge4" class="edge">
<title>HeaderComponent&#45;&gt;HomepageModule</title>
<path fill="none" stroke="black" d="M1347,-122.02C1347,-139.37 1347,-163 1347,-163 1347,-163 980.3,-163 980.3,-163"/>
<polygon fill="black" stroke="black" points="980.3,-159.5 970.3,-163 980.3,-166.5 980.3,-159.5"/>
</g>
<!-- HeaderGoToAppComponent -->
<g id="node5" class="node">
<title>HeaderGoToAppComponent</title>
<polygon fill="#ffffb3" stroke="black" points="1268.01,-122 1089.99,-122 1089.99,-86 1268.01,-86 1268.01,-122"/>
<text text-anchor="middle" x="1179" y="-99.8" font-family="Times,serif" font-size="14.00">HeaderGoToAppComponent</text>
</g>
<!-- HeaderGoToAppComponent&#45;&gt;HomepageModule -->
<g id="edge5" class="edge">
<title>HeaderGoToAppComponent&#45;&gt;HomepageModule</title>
<path fill="none" stroke="black" d="M1179,-122.24C1179,-137.57 1179,-157 1179,-157 1179,-157 980.37,-157 980.37,-157"/>
<polygon fill="black" stroke="black" points="980.37,-153.5 970.37,-157 980.37,-160.5 980.37,-153.5"/>
</g>
<!-- HeaderMenuComponent -->
<g id="node6" class="node">
<title>HeaderMenuComponent</title>
<polygon fill="#ffffb3" stroke="black" points="1072.4,-122 917.6,-122 917.6,-86 1072.4,-86 1072.4,-122"/>
<text text-anchor="middle" x="995" y="-99.8" font-family="Times,serif" font-size="14.00">HeaderMenuComponent</text>
</g>
<!-- HeaderMenuComponent&#45;&gt;HomepageModule -->
<g id="edge6" class="edge">
<title>HeaderMenuComponent&#45;&gt;HomepageModule</title>
<path fill="none" stroke="black" d="M943.95,-122.11C943.95,-122.11 943.95,-140.99 943.95,-140.99"/>
<polygon fill="black" stroke="black" points="940.45,-140.99 943.95,-150.99 947.45,-140.99 940.45,-140.99"/>
</g>
<!-- HeroBannerComponent -->
<g id="node7" class="node">
<title>HeroBannerComponent</title>
<polygon fill="#ffffb3" stroke="black" points="899.74,-122 750.26,-122 750.26,-86 899.74,-86 899.74,-122"/>
<text text-anchor="middle" x="825" y="-99.8" font-family="Times,serif" font-size="14.00">HeroBannerComponent</text>
</g>
<!-- HeroBannerComponent&#45;&gt;HomepageModule -->
<g id="edge7" class="edge">
<title>HeroBannerComponent&#45;&gt;HomepageModule</title>
<path fill="none" stroke="black" d="M874.89,-122.11C874.89,-122.11 874.89,-140.99 874.89,-140.99"/>
<polygon fill="black" stroke="black" points="871.39,-140.99 874.89,-150.99 878.39,-140.99 871.39,-140.99"/>
</g>
<!-- HomepageComponent -->
<g id="node8" class="node">
<title>HomepageComponent</title>
<polygon fill="#ffffb3" stroke="black" points="731.97,-122 590.03,-122 590.03,-86 731.97,-86 731.97,-122"/>
<text text-anchor="middle" x="661" y="-99.8" font-family="Times,serif" font-size="14.00">HomepageComponent</text>
</g>
<!-- HomepageComponent&#45;&gt;HomepageModule -->
<g id="edge8" class="edge">
<title>HomepageComponent&#45;&gt;HomepageModule</title>
<path fill="none" stroke="black" d="M661,-122.24C661,-137.57 661,-157 661,-157 661,-157 839.72,-157 839.72,-157"/>
<polygon fill="black" stroke="black" points="839.72,-160.5 849.72,-157 839.72,-153.5 839.72,-160.5"/>
</g>
<!-- SectionComponent -->
<g id="node9" class="node">
<title>SectionComponent</title>
<polygon fill="#ffffb3" stroke="black" points="571.83,-122 448.17,-122 448.17,-86 571.83,-86 571.83,-122"/>
<text text-anchor="middle" x="510" y="-99.8" font-family="Times,serif" font-size="14.00">SectionComponent</text>
</g>
<!-- SectionComponent&#45;&gt;HomepageModule -->
<g id="edge9" class="edge">
<title>SectionComponent&#45;&gt;HomepageModule</title>
<path fill="none" stroke="black" d="M510,-122.02C510,-139.37 510,-163 510,-163 510,-163 839.68,-163 839.68,-163"/>
<polygon fill="black" stroke="black" points="839.68,-166.5 849.68,-163 839.68,-159.5 839.68,-166.5"/>
</g>
<!-- HomepageRouting -->
<g id="node11" class="node">
<title>HomepageRouting</title>
<polygon fill="#8dd3c7" stroke="black" points="261.76,-122 258.76,-126 237.76,-126 234.76,-122 140.24,-122 140.24,-86 261.76,-86 261.76,-122"/>
<text text-anchor="middle" x="201" y="-99.8" font-family="Times,serif" font-size="14.00">HomepageRouting</text>
</g>
<!-- HomepageRouting&#45;&gt;HomepageModule -->
<g id="edge10" class="edge">
<title>HomepageRouting&#45;&gt;HomepageModule</title>
<path fill="none" stroke="black" d="M201,-122.28C201,-143.32 201,-175 201,-175 201,-175 839.86,-175 839.86,-175"/>
<polygon fill="black" stroke="black" points="839.86,-178.5 849.86,-175 839.86,-171.5 839.86,-178.5"/>
</g>
<!-- SharedModule -->
<g id="node12" class="node">
<title>SharedModule</title>
<polygon fill="#8dd3c7" stroke="black" points="122.42,-122 119.42,-126 98.42,-126 95.42,-122 23.58,-122 23.58,-86 122.42,-86 122.42,-122"/>
<text text-anchor="middle" x="73" y="-99.8" font-family="Times,serif" font-size="14.00">SharedModule</text>
</g>
<!-- SharedModule&#45;&gt;HomepageModule -->
<g id="edge11" class="edge">
<title>SharedModule&#45;&gt;HomepageModule</title>
<path fill="none" stroke="black" d="M73,-122.09C73,-145.13 73,-182 73,-182 73,-182 839.81,-182 839.81,-182"/>
<polygon fill="black" stroke="black" points="839.81,-185.5 849.81,-182 839.8,-178.5 839.81,-185.5"/>
</g>
<!-- SectionService -->
<g id="node13" class="node">
<title>SectionService</title>
<ellipse fill="#fdb462" stroke="black" cx="355" cy="-104" rx="68.92" ry="18"/>
<text text-anchor="middle" x="355" y="-99.8" font-family="Times,serif" font-size="14.00">SectionService</text>
</g>
<!-- SectionService&#45;&gt;HomepageModule -->
<g id="edge12" class="edge">
<title>SectionService&#45;&gt;HomepageModule</title>
<path fill="none" stroke="black" d="M355,-122.11C355,-141.34 355,-169 355,-169 355,-169 839.81,-169 839.81,-169"/>
<polygon fill="black" stroke="black" points="839.81,-172.5 849.81,-169 839.81,-165.5 839.81,-172.5"/>
</g>
</g>
</svg>
