<?xml version="1.0" encoding="UTF-8" standalone="no"?>
<!DOCTYPE svg PUBLIC "-//W3C//DTD SVG 1.1//EN"
 "http://www.w3.org/Graphics/SVG/1.1/DTD/svg11.dtd">
<!-- Generated by graphviz version 2.47.0 (20210316.0004)
 -->
<!-- Title: dependencies Pages: 1 -->
<svg width="2139pt" height="211pt"
 viewBox="0.00 0.00 2139.00 211.00" xmlns="http://www.w3.org/2000/svg" xmlns:xlink="http://www.w3.org/1999/xlink">
<g id="graph0" class="graph" transform="scale(1 1) rotate(0) translate(4 207)">
<title>dependencies</title>
<polygon fill="white" stroke="transparent" points="-4,4 -4,-207 2135,-207 2135,4 -4,4"/>
<text text-anchor="start" x="1044.51" y="-42.4" font-family="sans-serif" font-weight="bold" font-size="14.00">Legend</text>
<polygon fill="#ffffb3" stroke="transparent" points="831.5,-10 831.5,-30 851.5,-30 851.5,-10 831.5,-10"/>
<text text-anchor="start" x="855.13" y="-15.4" font-family="sans-serif" font-size="14.00"> &#160;Declarations</text>
<polygon fill="#8dd3c7" stroke="transparent" points="944.5,-10 944.5,-30 964.5,-30 964.5,-10 944.5,-10"/>
<text text-anchor="start" x="968.23" y="-15.4" font-family="sans-serif" font-size="14.00"> &#160;Module</text>
<polygon fill="#80b1d3" stroke="transparent" points="1030.5,-10 1030.5,-30 1050.5,-30 1050.5,-10 1030.5,-10"/>
<text text-anchor="start" x="1054.28" y="-15.4" font-family="sans-serif" font-size="14.00"> &#160;Bootstrap</text>
<polygon fill="#fdb462" stroke="transparent" points="1127.5,-10 1127.5,-30 1147.5,-30 1147.5,-10 1127.5,-10"/>
<text text-anchor="start" x="1151.17" y="-15.4" font-family="sans-serif" font-size="14.00"> &#160;Providers</text>
<polygon fill="#fb8072" stroke="transparent" points="1223.5,-10 1223.5,-30 1243.5,-30 1243.5,-10 1223.5,-10"/>
<text text-anchor="start" x="1247.23" y="-15.4" font-family="sans-serif" font-size="14.00"> &#160;Exports</text>
<g id="clust1" class="cluster">
<title>cluster_HomepageModule</title>
<polygon fill="none" stroke="black" stroke-dasharray="1,5" points="8,-70 8,-195 2123,-195 2123,-70 8,-70"/>
</g>
<g id="clust2" class="cluster">
<title>cluster_HomepageModule_declarations</title>
<polygon fill="none" stroke="black" points="440,-78 440,-130 2115,-130 2115,-78 440,-78"/>
</g>
<g id="clust13" class="cluster">
<title>cluster_HomepageModule_imports</title>
<polygon fill="none" stroke="black" points="178,-78 178,-130 432,-130 432,-78 178,-78"/>
</g>
<g id="clust16" class="cluster">
<title>cluster_HomepageModule_providers</title>
<polygon fill="none" stroke="black" points="16,-78 16,-130 170,-130 170,-78 16,-78"/>
</g>
<!-- FeaturesCardComponent -->
<g id="node1" class="node">
<title>FeaturesCardComponent</title>
<polygon fill="#ffffb3" stroke="black" points="2106.97,-122 1951.03,-122 1951.03,-86 2106.97,-86 2106.97,-122"/>
<text text-anchor="middle" x="2029" y="-99.8" font-family="Times,serif" font-size="14.00">FeaturesCardComponent</text>
</g>
<!-- HomepageModule -->
<g id="node11" class="node">
<title>HomepageModule</title>
<polygon fill="#8dd3c7" stroke="black" points="1055.19,-187 1052.19,-191 1031.19,-191 1028.19,-187 934.81,-187 934.81,-151 1055.19,-151 1055.19,-187"/>
<text text-anchor="middle" x="995" y="-164.8" font-family="Times,serif" font-size="14.00">HomepageModule</text>
</g>
<!-- FeaturesCardComponent&#45;&gt;HomepageModule -->
<g id="edge1" class="edge">
<title>FeaturesCardComponent&#45;&gt;HomepageModule</title>
<path fill="none" stroke="black" d="M2029,-122.09C2029,-145.13 2029,-182 2029,-182 2029,-182 1065.44,-182 1065.44,-182"/>
<polygon fill="black" stroke="black" points="1065.44,-178.5 1055.44,-182 1065.44,-185.5 1065.44,-178.5"/>
</g>
<!-- FeaturesContentComponent -->
<g id="node2" class="node">
<title>FeaturesContentComponent</title>
<polygon fill="#ffffb3" stroke="black" points="1932.59,-122 1759.41,-122 1759.41,-86 1932.59,-86 1932.59,-122"/>
<text text-anchor="middle" x="1846" y="-99.8" font-family="Times,serif" font-size="14.00">FeaturesContentComponent</text>
</g>
<!-- FeaturesContentComponent&#45;&gt;HomepageModule -->
<g id="edge2" class="edge">
<title>FeaturesContentComponent&#45;&gt;HomepageModule</title>
<path fill="none" stroke="black" d="M1846,-122.04C1846,-143.66 1846,-177 1846,-177 1846,-177 1065.18,-177 1065.18,-177"/>
<polygon fill="black" stroke="black" points="1065.18,-173.5 1055.18,-177 1065.18,-180.5 1065.18,-173.5"/>
</g>
<!-- FooterComponent -->
<g id="node3" class="node">
<title>FooterComponent</title>
<polygon fill="#ffffb3" stroke="black" points="1741.88,-122 1624.12,-122 1624.12,-86 1741.88,-86 1741.88,-122"/>
<text text-anchor="middle" x="1683" y="-99.8" font-family="Times,serif" font-size="14.00">FooterComponent</text>
</g>
<!-- FooterComponent&#45;&gt;HomepageModule -->
<g id="edge3" class="edge">
<title>FooterComponent&#45;&gt;HomepageModule</title>
<path fill="none" stroke="black" d="M1683,-122.22C1683,-142.37 1683,-172 1683,-172 1683,-172 1065.15,-172 1065.15,-172"/>
<polygon fill="black" stroke="black" points="1065.15,-168.5 1055.15,-172 1065.15,-175.5 1065.15,-168.5"/>
</g>
<!-- HeaderAppNameComponent -->
<g id="node4" class="node">
<title>HeaderAppNameComponent</title>
<polygon fill="#ffffb3" stroke="black" points="1605.78,-122 1426.22,-122 1426.22,-86 1605.78,-86 1605.78,-122"/>
<text text-anchor="middle" x="1516" y="-99.8" font-family="Times,serif" font-size="14.00">HeaderAppNameComponent</text>
</g>
<!-- HeaderAppNameComponent&#45;&gt;HomepageModule -->
<g id="edge4" class="edge">
<title>HeaderAppNameComponent&#45;&gt;HomepageModule</title>
<path fill="none" stroke="black" d="M1516,-122.22C1516,-140.83 1516,-167 1516,-167 1516,-167 1065.27,-167 1065.27,-167"/>
<polygon fill="black" stroke="black" points="1065.27,-163.5 1055.27,-167 1065.27,-170.5 1065.27,-163.5"/>
</g>
<!-- HeaderComponent -->
<g id="node5" class="node">
<title>HeaderComponent</title>
<polygon fill="#ffffb3" stroke="black" points="1407.74,-122 1286.26,-122 1286.26,-86 1407.74,-86 1407.74,-122"/>
<text text-anchor="middle" x="1347" y="-99.8" font-family="Times,serif" font-size="14.00">HeaderComponent</text>
</g>
<!-- HeaderComponent&#45;&gt;HomepageModule -->
<g id="edge5" class="edge">
<title>HeaderComponent&#45;&gt;HomepageModule</title>
<path fill="none" stroke="black" d="M1347,-122.03C1347,-139.06 1347,-162 1347,-162 1347,-162 1065.11,-162 1065.11,-162"/>
<polygon fill="black" stroke="black" points="1065.11,-158.5 1055.11,-162 1065.11,-165.5 1065.11,-158.5"/>
</g>
<!-- HeaderGoToAppComponent -->
<g id="node6" class="node">
<title>HeaderGoToAppComponent</title>
<polygon fill="#ffffb3" stroke="black" points="1268.01,-122 1089.99,-122 1089.99,-86 1268.01,-86 1268.01,-122"/>
<text text-anchor="middle" x="1179" y="-99.8" font-family="Times,serif" font-size="14.00">HeaderGoToAppComponent</text>
</g>
<!-- HeaderGoToAppComponent&#45;&gt;HomepageModule -->
<g id="edge6" class="edge">
<title>HeaderGoToAppComponent&#45;&gt;HomepageModule</title>
<path fill="none" stroke="black" d="M1179,-122.24C1179,-137.57 1179,-157 1179,-157 1179,-157 1065.25,-157 1065.25,-157"/>
<polygon fill="black" stroke="black" points="1065.25,-153.5 1055.25,-157 1065.25,-160.5 1065.25,-153.5"/>
</g>
<!-- HeaderMenuComponent -->
<g id="node7" class="node">
<title>HeaderMenuComponent</title>
<polygon fill="#ffffb3" stroke="black" points="1072.4,-122 917.6,-122 917.6,-86 1072.4,-86 1072.4,-122"/>
<text text-anchor="middle" x="995" y="-99.8" font-family="Times,serif" font-size="14.00">HeaderMenuComponent</text>
</g>
<!-- HeaderMenuComponent&#45;&gt;HomepageModule -->
<g id="edge7" class="edge">
<title>HeaderMenuComponent&#45;&gt;HomepageModule</title>
<path fill="none" stroke="black" d="M995,-122.11C995,-122.11 995,-140.99 995,-140.99"/>
<polygon fill="black" stroke="black" points="991.5,-140.99 995,-150.99 998.5,-140.99 991.5,-140.99"/>
</g>
<!-- HeroBannerComponent -->
<g id="node8" class="node">
<title>HeroBannerComponent</title>
<polygon fill="#ffffb3" stroke="black" points="899.74,-122 750.26,-122 750.26,-86 899.74,-86 899.74,-122"/>
<text text-anchor="middle" x="825" y="-99.8" font-family="Times,serif" font-size="14.00">HeroBannerComponent</text>
</g>
<!-- HeroBannerComponent&#45;&gt;HomepageModule -->
<g id="edge8" class="edge">
<title>HeroBannerComponent&#45;&gt;HomepageModule</title>
<path fill="none" stroke="black" d="M825,-122.24C825,-137.57 825,-157 825,-157 825,-157 924.59,-157 924.59,-157"/>
<polygon fill="black" stroke="black" points="924.59,-160.5 934.59,-157 924.59,-153.5 924.59,-160.5"/>
</g>
<!-- HomepageComponent -->
<g id="node9" class="node">
<title>HomepageComponent</title>
<polygon fill="#ffffb3" stroke="black" points="731.97,-122 590.03,-122 590.03,-86 731.97,-86 731.97,-122"/>
<text text-anchor="middle" x="661" y="-99.8" font-family="Times,serif" font-size="14.00">HomepageComponent</text>
</g>
<!-- HomepageComponent&#45;&gt;HomepageModule -->
<g id="edge9" class="edge">
<title>HomepageComponent&#45;&gt;HomepageModule</title>
<path fill="none" stroke="black" d="M661,-122.03C661,-139.06 661,-162 661,-162 661,-162 924.9,-162 924.9,-162"/>
<polygon fill="black" stroke="black" points="924.9,-165.5 934.9,-162 924.9,-158.5 924.9,-165.5"/>
</g>
<!-- SectionComponent -->
<g id="node10" class="node">
<title>SectionComponent</title>
<polygon fill="#ffffb3" stroke="black" points="571.83,-122 448.17,-122 448.17,-86 571.83,-86 571.83,-122"/>
<text text-anchor="middle" x="510" y="-99.8" font-family="Times,serif" font-size="14.00">SectionComponent</text>
</g>
<!-- SectionComponent&#45;&gt;HomepageModule -->
<g id="edge10" class="edge">
<title>SectionComponent&#45;&gt;HomepageModule</title>
<path fill="none" stroke="black" d="M510,-122.22C510,-140.83 510,-167 510,-167 510,-167 924.56,-167 924.56,-167"/>
<polygon fill="black" stroke="black" points="924.56,-170.5 934.56,-167 924.56,-163.5 924.56,-170.5"/>
</g>
<!-- HomepageRouting -->
<g id="node12" class="node">
<title>HomepageRouting</title>
<polygon fill="#8dd3c7" stroke="black" points="423.76,-122 420.76,-126 399.76,-126 396.76,-122 302.24,-122 302.24,-86 423.76,-86 423.76,-122"/>
<text text-anchor="middle" x="363" y="-99.8" font-family="Times,serif" font-size="14.00">HomepageRouting</text>
</g>
<!-- HomepageRouting&#45;&gt;HomepageModule -->
<g id="edge11" class="edge">
<title>HomepageRouting&#45;&gt;HomepageModule</title>
<path fill="none" stroke="black" d="M363,-122.22C363,-142.37 363,-172 363,-172 363,-172 924.69,-172 924.69,-172"/>
<polygon fill="black" stroke="black" points="924.69,-175.5 934.69,-172 924.69,-168.5 924.69,-175.5"/>
</g>
<!-- SharedModule -->
<g id="node13" class="node">
<title>SharedModule</title>
<polygon fill="#8dd3c7" stroke="black" points="284.42,-122 281.42,-126 260.42,-126 257.42,-122 185.58,-122 185.58,-86 284.42,-86 284.42,-122"/>
<text text-anchor="middle" x="235" y="-99.8" font-family="Times,serif" font-size="14.00">SharedModule</text>
</g>
<!-- SharedModule&#45;&gt;HomepageModule -->
<g id="edge12" class="edge">
<title>SharedModule&#45;&gt;HomepageModule</title>
<path fill="none" stroke="black" d="M235,-122.04C235,-143.66 235,-177 235,-177 235,-177 924.73,-177 924.73,-177"/>
<polygon fill="black" stroke="black" points="924.73,-180.5 934.73,-177 924.73,-173.5 924.73,-180.5"/>
</g>
<!-- SectionService -->
<g id="node14" class="node">
<title>SectionService</title>
<ellipse fill="#fdb462" stroke="black" cx="93" cy="-104" rx="68.92" ry="18"/>
<text text-anchor="middle" x="93" y="-99.8" font-family="Times,serif" font-size="14.00">SectionService</text>
</g>
<!-- SectionService&#45;&gt;HomepageModule -->
<g id="edge13" class="edge">
<title>SectionService&#45;&gt;HomepageModule</title>
<path fill="none" stroke="black" d="M93,-122.09C93,-145.13 93,-182 93,-182 93,-182 924.77,-182 924.77,-182"/>
<polygon fill="black" stroke="black" points="924.77,-185.5 934.77,-182 924.77,-178.5 924.77,-185.5"/>
</g>
</g>
</svg>
