<?xml version="1.0" encoding="UTF-8" standalone="no"?>
<!DOCTYPE svg PUBLIC "-//W3C//DTD SVG 1.1//EN"
 "http://www.w3.org/Graphics/SVG/1.1/DTD/svg11.dtd">
<!-- Generated by graphviz version 2.47.0 (20210316.0004)
 -->
<!-- Title: dependencies Pages: 1 -->
<svg width="526pt" height="284pt"
 viewBox="0.00 0.00 526.00 284.00" xmlns="http://www.w3.org/2000/svg" xmlns:xlink="http://www.w3.org/1999/xlink">
<g id="graph0" class="graph" transform="scale(1 1) rotate(0) translate(4 280)">
<title>dependencies</title>
<polygon fill="white" stroke="transparent" points="-4,4 -4,-280 522,-280 522,4 -4,4"/>
<text text-anchor="start" x="238.01" y="-42.4" font-family="sans-serif" font-weight="bold" font-size="14.00">Legend</text>
<polygon fill="#ffffb3" stroke="transparent" points="25,-10 25,-30 45,-30 45,-10 25,-10"/>
<text text-anchor="start" x="48.63" y="-15.4" font-family="sans-serif" font-size="14.00"> &#160;Declarations</text>
<polygon fill="#8dd3c7" stroke="transparent" points="138,-10 138,-30 158,-30 158,-10 138,-10"/>
<text text-anchor="start" x="161.73" y="-15.4" font-family="sans-serif" font-size="14.00"> &#160;Module</text>
<polygon fill="#80b1d3" stroke="transparent" points="224,-10 224,-30 244,-30 244,-10 224,-10"/>
<text text-anchor="start" x="247.78" y="-15.4" font-family="sans-serif" font-size="14.00"> &#160;Bootstrap</text>
<polygon fill="#fdb462" stroke="transparent" points="321,-10 321,-30 341,-30 341,-10 321,-10"/>
<text text-anchor="start" x="344.67" y="-15.4" font-family="sans-serif" font-size="14.00"> &#160;Providers</text>
<polygon fill="#fb8072" stroke="transparent" points="417,-10 417,-30 437,-30 437,-10 417,-10"/>
<text text-anchor="start" x="440.73" y="-15.4" font-family="sans-serif" font-size="14.00"> &#160;Exports</text>
<g id="clust1" class="cluster">
<title>cluster_SharedModule</title>
<polygon fill="none" stroke="black" stroke-dasharray="1,5" points="8,-70 8,-268 510,-268 510,-70 8,-70"/>
</g>
<g id="clust2" class="cluster">
<title>cluster_SharedModule_declarations</title>
<polygon fill="none" stroke="black" points="149,-78 149,-130 502,-130 502,-78 149,-78"/>
</g>
<g id="clust6" class="cluster">
<title>cluster_SharedModule_exports</title>
<polygon fill="none" stroke="black" points="16,-208 16,-260 502,-260 502,-208 16,-208"/>
</g>
<g id="clust5" class="cluster">
<title>cluster_SharedModule_imports</title>
<polygon fill="none" stroke="black" points="21,-78 21,-130 141,-130 141,-78 21,-78"/>
</g>
<!-- ConfirmDialogComponent -->
<g id="node1" class="node">
<title>ConfirmDialogComponent</title>
<polygon fill="#ffffb3" stroke="black" points="494.37,-122 327.63,-122 327.63,-86 494.37,-86 494.37,-122"/>
<text text-anchor="middle" x="411" y="-99.8" font-family="Times,serif" font-size="14.00">ConfirmDialogComponent</text>
</g>
<!-- SharedModule -->
<g id="node3" class="node">
<title>SharedModule</title>
<polygon fill="#8dd3c7" stroke="black" points="291.42,-187 288.42,-191 267.42,-191 264.42,-187 192.58,-187 192.58,-151 291.42,-151 291.42,-187"/>
<text text-anchor="middle" x="242" y="-164.8" font-family="Times,serif" font-size="14.00">SharedModule</text>
</g>
<!-- ConfirmDialogComponent&#45;&gt;SharedModule -->
<g id="edge1" class="edge">
<title>ConfirmDialogComponent&#45;&gt;SharedModule</title>
<path fill="none" stroke="black" d="M383.1,-122.02C383.1,-139.37 383.1,-163 383.1,-163 383.1,-163 301.35,-163 301.35,-163"/>
<polygon fill="black" stroke="black" points="301.35,-159.5 291.35,-163 301.35,-166.5 301.35,-159.5"/>
</g>
<!-- ScrollToTopComponent -->
<g id="node2" class="node">
<title>ScrollToTopComponent</title>
<polygon fill="#ffffb3" stroke="black" points="309.38,-122 156.62,-122 156.62,-86 309.38,-86 309.38,-122"/>
<text text-anchor="middle" x="233" y="-99.8" font-family="Times,serif" font-size="14.00">ScrollToTopComponent</text>
</g>
<!-- ScrollToTopComponent&#45;&gt;SharedModule -->
<g id="edge2" class="edge">
<title>ScrollToTopComponent&#45;&gt;SharedModule</title>
<path fill="none" stroke="black" d="M242,-122.11C242,-122.11 242,-140.99 242,-140.99"/>
<polygon fill="black" stroke="black" points="238.5,-140.99 242,-150.99 245.5,-140.99 238.5,-140.99"/>
</g>
<!-- ConfirmDialogComponent  -->
<g id="node5" class="node">
<title>ConfirmDialogComponent </title>
<polygon fill="#fb8072" stroke="black" points="494.37,-252 323.63,-252 323.63,-216 494.37,-216 494.37,-252"/>
<text text-anchor="middle" x="409" y="-229.8" font-family="Times,serif" font-size="14.00">ConfirmDialogComponent </text>
</g>
<!-- SharedModule&#45;&gt;ConfirmDialogComponent  -->
<g id="edge4" class="edge">
<title>SharedModule&#45;&gt;ConfirmDialogComponent </title>
<path fill="none" stroke="black" stroke-dasharray="5,2" d="M291.37,-175C349.62,-175 438.65,-175 438.65,-175 438.65,-175 438.65,-205.98 438.65,-205.98"/>
<polygon fill="black" stroke="black" points="435.15,-205.98 438.65,-215.98 442.15,-205.98 435.15,-205.98"/>
</g>
<!-- NebularModule  -->
<g id="node6" class="node">
<title>NebularModule </title>
<polygon fill="#fb8072" stroke="black" points="306.14,-252 197.86,-252 197.86,-216 306.14,-216 306.14,-252"/>
<text text-anchor="middle" x="252" y="-229.8" font-family="Times,serif" font-size="14.00">NebularModule </text>
</g>
<!-- SharedModule&#45;&gt;NebularModule  -->
<g id="edge5" class="edge">
<title>SharedModule&#45;&gt;NebularModule </title>
<path fill="none" stroke="black" stroke-dasharray="5,2" d="M244.57,-187.11C244.57,-187.11 244.57,-205.99 244.57,-205.99"/>
<polygon fill="black" stroke="black" points="241.07,-205.99 244.57,-215.99 248.07,-205.99 241.07,-205.99"/>
</g>
<!-- ScrollToTopComponent  -->
<g id="node7" class="node">
<title>ScrollToTopComponent </title>
<polygon fill="#fb8072" stroke="black" points="180.38,-252 23.62,-252 23.62,-216 180.38,-216 180.38,-252"/>
<text text-anchor="middle" x="102" y="-229.8" font-family="Times,serif" font-size="14.00">ScrollToTopComponent </text>
</g>
<!-- SharedModule&#45;&gt;ScrollToTopComponent  -->
<g id="edge6" class="edge">
<title>SharedModule&#45;&gt;ScrollToTopComponent </title>
<path fill="none" stroke="black" stroke-dasharray="5,2" d="M192.48,-175C179.16,-175 168.38,-175 168.38,-175 168.38,-175 168.38,-205.98 168.38,-205.98"/>
<polygon fill="black" stroke="black" points="164.88,-205.98 168.38,-215.98 171.88,-205.98 164.88,-205.98"/>
</g>
<!-- NebularModule -->
<g id="node4" class="node">
<title>NebularModule</title>
<polygon fill="#8dd3c7" stroke="black" points="133.14,-122 130.14,-126 109.14,-126 106.14,-122 28.86,-122 28.86,-86 133.14,-86 133.14,-122"/>
<text text-anchor="middle" x="81" y="-99.8" font-family="Times,serif" font-size="14.00">NebularModule</text>
</g>
<!-- NebularModule&#45;&gt;SharedModule -->
<g id="edge3" class="edge">
<title>NebularModule&#45;&gt;SharedModule</title>
<path fill="none" stroke="black" d="M81,-122.02C81,-139.37 81,-163 81,-163 81,-163 182.38,-163 182.38,-163"/>
<polygon fill="black" stroke="black" points="182.38,-166.5 192.38,-163 182.38,-159.5 182.38,-166.5"/>
</g>
</g>
</svg>
