<?xml version="1.0" encoding="UTF-8" standalone="no"?>
<!DOCTYPE svg PUBLIC "-//W3C//DTD SVG 1.1//EN"
 "http://www.w3.org/Graphics/SVG/1.1/DTD/svg11.dtd">
<!-- Generated by graphviz version 2.47.0 (20210316.0004)
 -->
<!-- Title: dependencies Pages: 1 -->
<svg width="614pt" height="211pt"
 viewBox="0.00 0.00 614.00 211.00" xmlns="http://www.w3.org/2000/svg" xmlns:xlink="http://www.w3.org/1999/xlink">
<g id="graph0" class="graph" transform="scale(1 1) rotate(0) translate(4 207)">
<title>dependencies</title>
<polygon fill="white" stroke="transparent" points="-4,4 -4,-207 610,-207 610,4 -4,4"/>
<text text-anchor="start" x="282.01" y="-42.4" font-family="sans-serif" font-weight="bold" font-size="14.00">Legend</text>
<polygon fill="#ffffb3" stroke="transparent" points="69,-10 69,-30 89,-30 89,-10 69,-10"/>
<text text-anchor="start" x="92.63" y="-15.4" font-family="sans-serif" font-size="14.00"> &#160;Declarations</text>
<polygon fill="#8dd3c7" stroke="transparent" points="182,-10 182,-30 202,-30 202,-10 182,-10"/>
<text text-anchor="start" x="205.73" y="-15.4" font-family="sans-serif" font-size="14.00"> &#160;Module</text>
<polygon fill="#80b1d3" stroke="transparent" points="268,-10 268,-30 288,-30 288,-10 268,-10"/>
<text text-anchor="start" x="291.78" y="-15.4" font-family="sans-serif" font-size="14.00"> &#160;Bootstrap</text>
<polygon fill="#fdb462" stroke="transparent" points="365,-10 365,-30 385,-30 385,-10 365,-10"/>
<text text-anchor="start" x="388.67" y="-15.4" font-family="sans-serif" font-size="14.00"> &#160;Providers</text>
<polygon fill="#fb8072" stroke="transparent" points="461,-10 461,-30 481,-30 481,-10 461,-10"/>
<text text-anchor="start" x="484.73" y="-15.4" font-family="sans-serif" font-size="14.00"> &#160;Exports</text>
<g id="clust1" class="cluster">
<title>cluster_ApplicationModule</title>
<polygon fill="none" stroke="black" stroke-dasharray="1,5" points="8,-70 8,-195 598,-195 598,-70 8,-70"/>
</g>
<g id="clust5" class="cluster">
<title>cluster_ApplicationModule_imports</title>
<polygon fill="none" stroke="black" points="330,-78 330,-130 590,-130 590,-78 330,-78"/>
</g>
<g id="clust2" class="cluster">
<title>cluster_ApplicationModule_declarations</title>
<polygon fill="none" stroke="black" points="16,-78 16,-130 322,-130 322,-78 16,-78"/>
</g>
<!-- LeftMenuComponent -->
<g id="node1" class="node">
<title>LeftMenuComponent</title>
<polygon fill="#ffffb3" stroke="black" points="313.81,-122 176.19,-122 176.19,-86 313.81,-86 313.81,-122"/>
<text text-anchor="middle" x="245" y="-99.8" font-family="Times,serif" font-size="14.00">LeftMenuComponent</text>
</g>
<!-- ApplicationModule -->
<g id="node3" class="node">
<title>ApplicationModule</title>
<polygon fill="#8dd3c7" stroke="black" points="378.65,-187 375.65,-191 354.65,-191 351.65,-187 253.35,-187 253.35,-151 378.65,-151 378.65,-187"/>
<text text-anchor="middle" x="316" y="-164.8" font-family="Times,serif" font-size="14.00">ApplicationModule</text>
</g>
<!-- LeftMenuComponent&#45;&gt;ApplicationModule -->
<g id="edge1" class="edge">
<title>LeftMenuComponent&#45;&gt;ApplicationModule</title>
<path fill="none" stroke="black" d="M283.42,-122.11C283.42,-122.11 283.42,-140.99 283.42,-140.99"/>
<polygon fill="black" stroke="black" points="279.92,-140.99 283.42,-150.99 286.92,-140.99 279.92,-140.99"/>
</g>
<!-- TemplateComponent -->
<g id="node2" class="node">
<title>TemplateComponent</title>
<polygon fill="#ffffb3" stroke="black" points="158.2,-122 23.8,-122 23.8,-86 158.2,-86 158.2,-122"/>
<text text-anchor="middle" x="91" y="-99.8" font-family="Times,serif" font-size="14.00">TemplateComponent</text>
</g>
<!-- TemplateComponent&#45;&gt;ApplicationModule -->
<g id="edge2" class="edge">
<title>TemplateComponent&#45;&gt;ApplicationModule</title>
<path fill="none" stroke="black" d="M91,-122.11C91,-141.34 91,-169 91,-169 91,-169 243.32,-169 243.32,-169"/>
<polygon fill="black" stroke="black" points="243.32,-172.5 253.32,-169 243.32,-165.5 243.32,-172.5"/>
</g>
<!-- ApplicationRouting -->
<g id="node4" class="node">
<title>ApplicationRouting</title>
<polygon fill="#8dd3c7" stroke="black" points="581.72,-122 578.72,-126 557.72,-126 554.72,-122 454.28,-122 454.28,-86 581.72,-86 581.72,-122"/>
<text text-anchor="middle" x="518" y="-99.8" font-family="Times,serif" font-size="14.00">ApplicationRouting</text>
</g>
<!-- ApplicationRouting&#45;&gt;ApplicationModule -->
<g id="edge3" class="edge">
<title>ApplicationRouting&#45;&gt;ApplicationModule</title>
<path fill="none" stroke="black" d="M518,-122.11C518,-141.34 518,-169 518,-169 518,-169 388.81,-169 388.81,-169"/>
<polygon fill="black" stroke="black" points="388.81,-165.5 378.81,-169 388.81,-172.5 388.81,-165.5"/>
</g>
<!-- SharedModule -->
<g id="node5" class="node">
<title>SharedModule</title>
<polygon fill="#8dd3c7" stroke="black" points="436.42,-122 433.42,-126 412.42,-126 409.42,-122 337.58,-122 337.58,-86 436.42,-86 436.42,-122"/>
<text text-anchor="middle" x="387" y="-99.8" font-family="Times,serif" font-size="14.00">SharedModule</text>
</g>
<!-- SharedModule&#45;&gt;ApplicationModule -->
<g id="edge4" class="edge">
<title>SharedModule&#45;&gt;ApplicationModule</title>
<path fill="none" stroke="black" d="M358.31,-122.11C358.31,-122.11 358.31,-140.99 358.31,-140.99"/>
<polygon fill="black" stroke="black" points="354.81,-140.99 358.31,-150.99 361.81,-140.99 354.81,-140.99"/>
</g>
</g>
</svg>
