<?xml version="1.0" encoding="UTF-8" standalone="no"?>
<!DOCTYPE svg PUBLIC "-//W3C//DTD SVG 1.1//EN"
 "http://www.w3.org/Graphics/SVG/1.1/DTD/svg11.dtd">
<!-- Generated by graphviz version 2.47.0 (20210316.0004)
 -->
<!-- Title: dependencies Pages: 1 -->
<svg width="504pt" height="211pt"
 viewBox="0.00 0.00 504.00 211.00" xmlns="http://www.w3.org/2000/svg" xmlns:xlink="http://www.w3.org/1999/xlink">
<g id="graph0" class="graph" transform="scale(1 1) rotate(0) translate(4 207)">
<title>dependencies</title>
<polygon fill="white" stroke="transparent" points="-4,4 -4,-207 500,-207 500,4 -4,4"/>
<text text-anchor="start" x="227.01" y="-42.4" font-family="sans-serif" font-weight="bold" font-size="14.00">Legend</text>
<polygon fill="#ffffb3" stroke="transparent" points="14,-10 14,-30 34,-30 34,-10 14,-10"/>
<text text-anchor="start" x="37.63" y="-15.4" font-family="sans-serif" font-size="14.00"> &#160;Declarations</text>
<polygon fill="#8dd3c7" stroke="transparent" points="127,-10 127,-30 147,-30 147,-10 127,-10"/>
<text text-anchor="start" x="150.73" y="-15.4" font-family="sans-serif" font-size="14.00"> &#160;Module</text>
<polygon fill="#80b1d3" stroke="transparent" points="213,-10 213,-30 233,-30 233,-10 213,-10"/>
<text text-anchor="start" x="236.78" y="-15.4" font-family="sans-serif" font-size="14.00"> &#160;Bootstrap</text>
<polygon fill="#fdb462" stroke="transparent" points="310,-10 310,-30 330,-30 330,-10 310,-10"/>
<text text-anchor="start" x="333.67" y="-15.4" font-family="sans-serif" font-size="14.00"> &#160;Providers</text>
<polygon fill="#fb8072" stroke="transparent" points="406,-10 406,-30 426,-30 426,-10 406,-10"/>
<text text-anchor="start" x="429.73" y="-15.4" font-family="sans-serif" font-size="14.00"> &#160;Exports</text>
<g id="clust1" class="cluster">
<title>cluster_ApplicationModule</title>
<polygon fill="none" stroke="black" stroke-dasharray="1,5" points="31,-70 31,-195 465,-195 465,-70 31,-70"/>
</g>
<g id="clust4" class="cluster">
<title>cluster_ApplicationModule_imports</title>
<polygon fill="none" stroke="black" points="197,-78 197,-130 457,-130 457,-78 197,-78"/>
</g>
<g id="clust2" class="cluster">
<title>cluster_ApplicationModule_declarations</title>
<polygon fill="none" stroke="black" points="39,-78 39,-130 189,-130 189,-78 39,-78"/>
</g>
<!-- TemplateComponent -->
<g id="node1" class="node">
<title>TemplateComponent</title>
<polygon fill="#ffffb3" stroke="black" points="181.2,-122 46.8,-122 46.8,-86 181.2,-86 181.2,-122"/>
<text text-anchor="middle" x="114" y="-99.8" font-family="Times,serif" font-size="14.00">TemplateComponent</text>
</g>
<!-- ApplicationModule -->
<g id="node2" class="node">
<title>ApplicationModule</title>
<polygon fill="#8dd3c7" stroke="black" points="316.65,-187 313.65,-191 292.65,-191 289.65,-187 191.35,-187 191.35,-151 316.65,-151 316.65,-187"/>
<text text-anchor="middle" x="254" y="-164.8" font-family="Times,serif" font-size="14.00">ApplicationModule</text>
</g>
<!-- TemplateComponent&#45;&gt;ApplicationModule -->
<g id="edge1" class="edge">
<title>TemplateComponent&#45;&gt;ApplicationModule</title>
<path fill="none" stroke="black" d="M181.39,-104C191.15,-104 197.98,-104 197.98,-104 197.98,-104 197.98,-140.89 197.98,-140.89"/>
<polygon fill="black" stroke="black" points="194.48,-140.89 197.98,-150.89 201.48,-140.89 194.48,-140.89"/>
</g>
<!-- ApplicationRouting -->
<g id="node3" class="node">
<title>ApplicationRouting</title>
<polygon fill="#8dd3c7" stroke="black" points="448.72,-122 445.72,-126 424.72,-126 421.72,-122 321.28,-122 321.28,-86 448.72,-86 448.72,-122"/>
<text text-anchor="middle" x="385" y="-99.8" font-family="Times,serif" font-size="14.00">ApplicationRouting</text>
</g>
<!-- ApplicationRouting&#45;&gt;ApplicationModule -->
<g id="edge2" class="edge">
<title>ApplicationRouting&#45;&gt;ApplicationModule</title>
<path fill="none" stroke="black" d="M321.08,-104C314.42,-104 310.02,-104 310.02,-104 310.02,-104 310.02,-140.89 310.02,-140.89"/>
<polygon fill="black" stroke="black" points="306.52,-140.89 310.02,-150.89 313.52,-140.89 306.52,-140.89"/>
</g>
<!-- SharedModule -->
<g id="node4" class="node">
<title>SharedModule</title>
<polygon fill="#8dd3c7" stroke="black" points="303.42,-122 300.42,-126 279.42,-126 276.42,-122 204.58,-122 204.58,-86 303.42,-86 303.42,-122"/>
<text text-anchor="middle" x="254" y="-99.8" font-family="Times,serif" font-size="14.00">SharedModule</text>
</g>
<!-- SharedModule&#45;&gt;ApplicationModule -->
<g id="edge3" class="edge">
<title>SharedModule&#45;&gt;ApplicationModule</title>
<path fill="none" stroke="black" d="M254,-122.11C254,-122.11 254,-140.99 254,-140.99"/>
<polygon fill="black" stroke="black" points="250.5,-140.99 254,-150.99 257.5,-140.99 250.5,-140.99"/>
</g>
</g>
</svg>
