<?xml version="1.0" encoding="UTF-8" standalone="no"?>
<!DOCTYPE svg PUBLIC "-//W3C//DTD SVG 1.1//EN"
 "http://www.w3.org/Graphics/SVG/1.1/DTD/svg11.dtd">
<!-- Generated by graphviz version 2.47.0 (20210316.0004)
 -->
<!-- Title: dependencies Pages: 1 -->
<svg width="1185pt" height="211pt"
 viewBox="0.00 0.00 1185.00 211.00" xmlns="http://www.w3.org/2000/svg" xmlns:xlink="http://www.w3.org/1999/xlink">
<g id="graph0" class="graph" transform="scale(1 1) rotate(0) translate(4 207)">
<title>dependencies</title>
<polygon fill="white" stroke="transparent" points="-4,4 -4,-207 1181,-207 1181,4 -4,4"/>
<text text-anchor="start" x="567.51" y="-42.4" font-family="sans-serif" font-weight="bold" font-size="14.00">Legend</text>
<polygon fill="#ffffb3" stroke="transparent" points="354.5,-10 354.5,-30 374.5,-30 374.5,-10 354.5,-10"/>
<text text-anchor="start" x="378.13" y="-15.4" font-family="sans-serif" font-size="14.00"> &#160;Declarations</text>
<polygon fill="#8dd3c7" stroke="transparent" points="467.5,-10 467.5,-30 487.5,-30 487.5,-10 467.5,-10"/>
<text text-anchor="start" x="491.23" y="-15.4" font-family="sans-serif" font-size="14.00"> &#160;Module</text>
<polygon fill="#80b1d3" stroke="transparent" points="553.5,-10 553.5,-30 573.5,-30 573.5,-10 553.5,-10"/>
<text text-anchor="start" x="577.28" y="-15.4" font-family="sans-serif" font-size="14.00"> &#160;Bootstrap</text>
<polygon fill="#fdb462" stroke="transparent" points="650.5,-10 650.5,-30 670.5,-30 670.5,-10 650.5,-10"/>
<text text-anchor="start" x="674.17" y="-15.4" font-family="sans-serif" font-size="14.00"> &#160;Providers</text>
<polygon fill="#fb8072" stroke="transparent" points="746.5,-10 746.5,-30 766.5,-30 766.5,-10 746.5,-10"/>
<text text-anchor="start" x="770.23" y="-15.4" font-family="sans-serif" font-size="14.00"> &#160;Exports</text>
<g id="clust1" class="cluster">
<title>cluster_AgendaModule</title>
<polygon fill="none" stroke="black" stroke-dasharray="1,5" points="8,-70 8,-195 1169,-195 1169,-70 8,-70"/>
</g>
<g id="clust9" class="cluster">
<title>cluster_AgendaModule_providers</title>
<polygon fill="none" stroke="black" points="795,-78 795,-130 1161,-130 1161,-78 795,-78"/>
</g>
<g id="clust2" class="cluster">
<title>cluster_AgendaModule_declarations</title>
<polygon fill="none" stroke="black" points="261,-78 261,-130 787,-130 787,-78 261,-78"/>
</g>
<g id="clust6" class="cluster">
<title>cluster_AgendaModule_imports</title>
<polygon fill="none" stroke="black" points="16,-78 16,-130 253,-130 253,-78 16,-78"/>
</g>
<!-- AgendaComponent -->
<g id="node1" class="node">
<title>AgendaComponent</title>
<polygon fill="#ffffb3" stroke="black" points="779.37,-122 654.63,-122 654.63,-86 779.37,-86 779.37,-122"/>
<text text-anchor="middle" x="717" y="-99.8" font-family="Times,serif" font-size="14.00">AgendaComponent</text>
</g>
<!-- AgendaModule -->
<g id="node4" class="node">
<title>AgendaModule</title>
<polygon fill="#8dd3c7" stroke="black" points="598.59,-187 595.59,-191 574.59,-191 571.59,-187 495.41,-187 495.41,-151 598.59,-151 598.59,-187"/>
<text text-anchor="middle" x="547" y="-164.8" font-family="Times,serif" font-size="14.00">AgendaModule</text>
</g>
<!-- AgendaComponent&#45;&gt;AgendaModule -->
<g id="edge1" class="edge">
<title>AgendaComponent&#45;&gt;AgendaModule</title>
<path fill="none" stroke="black" d="M717,-122.03C717,-138.4 717,-160 717,-160 717,-160 608.93,-160 608.93,-160"/>
<polygon fill="black" stroke="black" points="608.93,-156.5 598.93,-160 608.93,-163.5 608.93,-156.5"/>
</g>
<!-- AgendaContainerComponent -->
<g id="node2" class="node">
<title>AgendaContainerComponent</title>
<polygon fill="#ffffb3" stroke="black" points="637.08,-122 456.92,-122 456.92,-86 637.08,-86 637.08,-122"/>
<text text-anchor="middle" x="547" y="-99.8" font-family="Times,serif" font-size="14.00">AgendaContainerComponent</text>
</g>
<!-- AgendaContainerComponent&#45;&gt;AgendaModule -->
<g id="edge2" class="edge">
<title>AgendaContainerComponent&#45;&gt;AgendaModule</title>
<path fill="none" stroke="black" d="M547,-122.11C547,-122.11 547,-140.99 547,-140.99"/>
<polygon fill="black" stroke="black" points="543.5,-140.99 547,-150.99 550.5,-140.99 543.5,-140.99"/>
</g>
<!-- AgendaToolbarComponent -->
<g id="node3" class="node">
<title>AgendaToolbarComponent</title>
<polygon fill="#ffffb3" stroke="black" points="438.69,-122 269.31,-122 269.31,-86 438.69,-86 438.69,-122"/>
<text text-anchor="middle" x="354" y="-99.8" font-family="Times,serif" font-size="14.00">AgendaToolbarComponent</text>
</g>
<!-- AgendaToolbarComponent&#45;&gt;AgendaModule -->
<g id="edge3" class="edge">
<title>AgendaToolbarComponent&#45;&gt;AgendaModule</title>
<path fill="none" stroke="black" d="M354,-122.03C354,-138.4 354,-160 354,-160 354,-160 485.28,-160 485.28,-160"/>
<polygon fill="black" stroke="black" points="485.28,-163.5 495.28,-160 485.28,-156.5 485.28,-163.5"/>
</g>
<!-- AgendaRouting -->
<g id="node5" class="node">
<title>AgendaRouting</title>
<polygon fill="#8dd3c7" stroke="black" points="245.15,-122 242.15,-126 221.15,-126 218.15,-122 140.85,-122 140.85,-86 245.15,-86 245.15,-122"/>
<text text-anchor="middle" x="193" y="-99.8" font-family="Times,serif" font-size="14.00">AgendaRouting</text>
</g>
<!-- AgendaRouting&#45;&gt;AgendaModule -->
<g id="edge4" class="edge">
<title>AgendaRouting&#45;&gt;AgendaModule</title>
<path fill="none" stroke="black" d="M193,-122.11C193,-141.34 193,-169 193,-169 193,-169 485.15,-169 485.15,-169"/>
<polygon fill="black" stroke="black" points="485.15,-172.5 495.15,-169 485.15,-165.5 485.15,-172.5"/>
</g>
<!-- SharedModule -->
<g id="node6" class="node">
<title>SharedModule</title>
<polygon fill="#8dd3c7" stroke="black" points="122.42,-122 119.42,-126 98.42,-126 95.42,-122 23.58,-122 23.58,-86 122.42,-86 122.42,-122"/>
<text text-anchor="middle" x="73" y="-99.8" font-family="Times,serif" font-size="14.00">SharedModule</text>
</g>
<!-- SharedModule&#45;&gt;AgendaModule -->
<g id="edge5" class="edge">
<title>SharedModule&#45;&gt;AgendaModule</title>
<path fill="none" stroke="black" d="M73,-122.29C73,-144.21 73,-178 73,-178 73,-178 485.37,-178 485.37,-178"/>
<polygon fill="black" stroke="black" points="485.37,-181.5 495.37,-178 485.37,-174.5 485.37,-181.5"/>
</g>
<!-- AgendaHelperService -->
<g id="node7" class="node">
<title>AgendaHelperService</title>
<ellipse fill="#fdb462" stroke="black" cx="1057" cy="-104" rx="96.09" ry="18"/>
<text text-anchor="middle" x="1057" y="-99.8" font-family="Times,serif" font-size="14.00">AgendaHelperService</text>
</g>
<!-- AgendaHelperService&#45;&gt;AgendaModule -->
<g id="edge6" class="edge">
<title>AgendaHelperService&#45;&gt;AgendaModule</title>
<path fill="none" stroke="black" d="M1057,-122.29C1057,-144.21 1057,-178 1057,-178 1057,-178 608.71,-178 608.71,-178"/>
<polygon fill="black" stroke="black" points="608.71,-174.5 598.71,-178 608.71,-181.5 608.71,-174.5"/>
</g>
<!-- AgendaService -->
<g id="node8" class="node">
<title>AgendaService</title>
<ellipse fill="#fdb462" stroke="black" cx="873" cy="-104" rx="70.04" ry="18"/>
<text text-anchor="middle" x="873" y="-99.8" font-family="Times,serif" font-size="14.00">AgendaService</text>
</g>
<!-- AgendaService&#45;&gt;AgendaModule -->
<g id="edge7" class="edge">
<title>AgendaService&#45;&gt;AgendaModule</title>
<path fill="none" stroke="black" d="M873,-122.11C873,-141.34 873,-169 873,-169 873,-169 608.66,-169 608.66,-169"/>
<polygon fill="black" stroke="black" points="608.66,-165.5 598.66,-169 608.66,-172.5 608.66,-165.5"/>
</g>
</g>
</svg>
