<?xml version="1.0" encoding="UTF-8" standalone="no"?>
<!DOCTYPE svg PUBLIC "-//W3C//DTD SVG 1.1//EN"
 "http://www.w3.org/Graphics/SVG/1.1/DTD/svg11.dtd">
<!-- Generated by graphviz version 2.47.0 (20210316.0004)
 -->
<!-- Title: dependencies Pages: 1 -->
<svg width="4150pt" height="290pt"
 viewBox="0.00 0.00 4150.00 290.00" xmlns="http://www.w3.org/2000/svg" xmlns:xlink="http://www.w3.org/1999/xlink">
<g id="graph0" class="graph" transform="scale(1 1) rotate(0) translate(4 286)">
<title>dependencies</title>
<polygon fill="white" stroke="transparent" points="-4,4 -4,-286 4146,-286 4146,4 -4,4"/>
<text text-anchor="start" x="2050.01" y="-42.4" font-family="sans-serif" font-weight="bold" font-size="14.00">Legend</text>
<polygon fill="#ffffb3" stroke="transparent" points="1837,-10 1837,-30 1857,-30 1857,-10 1837,-10"/>
<text text-anchor="start" x="1860.63" y="-15.4" font-family="sans-serif" font-size="14.00"> &#160;Declarations</text>
<polygon fill="#8dd3c7" stroke="transparent" points="1950,-10 1950,-30 1970,-30 1970,-10 1950,-10"/>
<text text-anchor="start" x="1973.73" y="-15.4" font-family="sans-serif" font-size="14.00"> &#160;Module</text>
<polygon fill="#80b1d3" stroke="transparent" points="2036,-10 2036,-30 2056,-30 2056,-10 2036,-10"/>
<text text-anchor="start" x="2059.78" y="-15.4" font-family="sans-serif" font-size="14.00"> &#160;Bootstrap</text>
<polygon fill="#fdb462" stroke="transparent" points="2133,-10 2133,-30 2153,-30 2153,-10 2133,-10"/>
<text text-anchor="start" x="2156.67" y="-15.4" font-family="sans-serif" font-size="14.00"> &#160;Providers</text>
<polygon fill="#fb8072" stroke="transparent" points="2229,-10 2229,-30 2249,-30 2249,-10 2229,-10"/>
<text text-anchor="start" x="2252.73" y="-15.4" font-family="sans-serif" font-size="14.00"> &#160;Exports</text>
<g id="clust1" class="cluster">
<title>cluster_AgendaModule</title>
<polygon fill="none" stroke="black" stroke-dasharray="1,5" points="8,-70 8,-198 164,-198 164,-70 8,-70"/>
</g>
<g id="clust2" class="cluster">
<title>cluster_AgendaModule_declarations</title>
<polygon fill="none" stroke="black" points="16,-78 16,-130 156,-130 156,-78 16,-78"/>
</g>
<g id="clust14" class="cluster">
<title>cluster_ApplicationModule</title>
<polygon fill="none" stroke="black" stroke-dasharray="1,5" points="448,-70 448,-198 882,-198 882,-70 448,-70"/>
</g>
<g id="clust15" class="cluster">
<title>cluster_ApplicationModule_declarations</title>
<polygon fill="none" stroke="black" points="456,-78 456,-130 606,-130 606,-78 456,-78"/>
</g>
<g id="clust17" class="cluster">
<title>cluster_ApplicationModule_imports</title>
<polygon fill="none" stroke="black" points="614,-78 614,-130 874,-130 874,-78 614,-78"/>
</g>
<g id="clust27" class="cluster">
<title>cluster_AppModule</title>
<polygon fill="none" stroke="black" stroke-dasharray="1,5" points="3720,-70 3720,-274 3968,-274 3968,-70 3720,-70"/>
</g>
<g id="clust28" class="cluster">
<title>cluster_AppModule_declarations</title>
<polygon fill="none" stroke="black" points="3838,-78 3838,-130 3960,-130 3960,-78 3838,-78"/>
</g>
<g id="clust30" class="cluster">
<title>cluster_AppModule_imports</title>
<polygon fill="none" stroke="black" points="3728,-78 3728,-130 3830,-130 3830,-78 3728,-78"/>
</g>
<g id="clust32" class="cluster">
<title>cluster_AppModule_bootstrap</title>
<polygon fill="none" stroke="black" points="3782,-214 3782,-266 3906,-266 3906,-214 3782,-214"/>
</g>
<g id="clust40" class="cluster">
<title>cluster_AuthModule</title>
<polygon fill="none" stroke="black" stroke-dasharray="1,5" points="890,-70 890,-198 1608,-198 1608,-70 890,-70"/>
</g>
<g id="clust41" class="cluster">
<title>cluster_AuthModule_declarations</title>
<polygon fill="none" stroke="black" points="1012,-78 1012,-130 1600,-130 1600,-78 1012,-78"/>
</g>
<g id="clust46" class="cluster">
<title>cluster_AuthModule_imports</title>
<polygon fill="none" stroke="black" points="898,-78 898,-130 1004,-130 1004,-78 898,-78"/>
</g>
<g id="clust56" class="cluster">
<title>cluster_DashboardModule</title>
<polygon fill="none" stroke="black" stroke-dasharray="1,5" points="1616,-70 1616,-198 1936,-198 1936,-70 1616,-70"/>
</g>
<g id="clust57" class="cluster">
<title>cluster_DashboardModule_declarations</title>
<polygon fill="none" stroke="black" points="1770,-78 1770,-130 1928,-130 1928,-78 1770,-78"/>
</g>
<g id="clust59" class="cluster">
<title>cluster_DashboardModule_imports</title>
<polygon fill="none" stroke="black" points="1624,-78 1624,-130 1762,-130 1762,-78 1624,-78"/>
</g>
<g id="clust69" class="cluster">
<title>cluster_HomepageModule</title>
<polygon fill="none" stroke="black" stroke-dasharray="1,5" points="1944,-70 1944,-198 3712,-198 3712,-70 1944,-70"/>
</g>
<g id="clust70" class="cluster">
<title>cluster_HomepageModule_declarations</title>
<polygon fill="none" stroke="black" points="2260,-78 2260,-130 3704,-130 3704,-78 2260,-78"/>
</g>
<g id="clust80" class="cluster">
<title>cluster_HomepageModule_imports</title>
<polygon fill="none" stroke="black" points="2114,-78 2114,-130 2252,-130 2252,-78 2114,-78"/>
</g>
<g id="clust83" class="cluster">
<title>cluster_HomepageModule_providers</title>
<polygon fill="none" stroke="black" points="1952,-78 1952,-130 2106,-130 2106,-78 1952,-78"/>
</g>
<g id="clust96" class="cluster">
<title>cluster_SettingsModule</title>
<polygon fill="none" stroke="black" stroke-dasharray="1,5" points="3976,-70 3976,-198 4134,-198 4134,-70 3976,-70"/>
</g>
<g id="clust97" class="cluster">
<title>cluster_SettingsModule_declarations</title>
<polygon fill="none" stroke="black" points="3984,-78 3984,-130 4126,-130 4126,-78 3984,-78"/>
</g>
<g id="clust109" class="cluster">
<title>cluster_SharedModule</title>
<polygon fill="none" stroke="black" stroke-dasharray="1,5" points="172,-138 172,-206 440,-206 440,-138 172,-138"/>
</g>
<g id="clust111" class="cluster">
<title>cluster_SharedModule_imports</title>
<polygon fill="none" stroke="black" points="312,-146 312,-198 432,-198 432,-146 312,-146"/>
</g>
<g id="clust112" class="cluster">
<title>cluster_SharedModule_exports</title>
<polygon fill="none" stroke="black" points="180,-146 180,-198 304,-198 304,-146 180,-146"/>
</g>
<!-- AgendaComponent -->
<g id="node1" class="node">
<title>AgendaComponent</title>
<polygon fill="#ffffb3" stroke="black" points="148.37,-122 23.63,-122 23.63,-86 148.37,-86 148.37,-122"/>
<text text-anchor="middle" x="86" y="-99.8" font-family="Times,serif" font-size="14.00">AgendaComponent</text>
</g>
<!-- AgendaModule -->
<g id="node2" class="node">
<title>AgendaModule</title>
<polygon fill="#8dd3c7" stroke="black" points="137.59,-190 134.59,-194 113.59,-194 110.59,-190 34.41,-190 34.41,-154 137.59,-154 137.59,-190"/>
<text text-anchor="middle" x="86" y="-167.8" font-family="Times,serif" font-size="14.00">AgendaModule</text>
</g>
<!-- AgendaComponent&#45;&gt;AgendaModule -->
<g id="edge1" class="edge">
<title>AgendaComponent&#45;&gt;AgendaModule</title>
<path fill="none" stroke="black" d="M86,-122.22C86,-122.22 86,-143.73 86,-143.73"/>
<polygon fill="black" stroke="black" points="82.5,-143.73 86,-153.73 89.5,-143.73 82.5,-143.73"/>
</g>
<!-- TemplateComponent -->
<g id="node3" class="node">
<title>TemplateComponent</title>
<polygon fill="#ffffb3" stroke="black" points="598.2,-122 463.8,-122 463.8,-86 598.2,-86 598.2,-122"/>
<text text-anchor="middle" x="531" y="-99.8" font-family="Times,serif" font-size="14.00">TemplateComponent</text>
</g>
<!-- ApplicationModule -->
<g id="node4" class="node">
<title>ApplicationModule</title>
<polygon fill="#8dd3c7" stroke="black" points="748.65,-190 745.65,-194 724.65,-194 721.65,-190 623.35,-190 623.35,-154 748.65,-154 748.65,-190"/>
<text text-anchor="middle" x="686" y="-167.8" font-family="Times,serif" font-size="14.00">ApplicationModule</text>
</g>
<!-- TemplateComponent&#45;&gt;ApplicationModule -->
<g id="edge2" class="edge">
<title>TemplateComponent&#45;&gt;ApplicationModule</title>
<path fill="none" stroke="black" d="M531,-122.22C531,-142.37 531,-172 531,-172 531,-172 612.96,-172 612.96,-172"/>
<polygon fill="black" stroke="black" points="612.96,-175.5 622.96,-172 612.96,-168.5 612.96,-175.5"/>
</g>
<!-- ApplicationRouting -->
<g id="node5" class="node">
<title>ApplicationRouting</title>
<polygon fill="#8dd3c7" stroke="black" points="749.72,-122 746.72,-126 725.72,-126 722.72,-122 622.28,-122 622.28,-86 749.72,-86 749.72,-122"/>
<text text-anchor="middle" x="686" y="-99.8" font-family="Times,serif" font-size="14.00">ApplicationRouting</text>
</g>
<!-- ApplicationRouting&#45;&gt;ApplicationModule -->
<g id="edge3" class="edge">
<title>ApplicationRouting&#45;&gt;ApplicationModule</title>
<path fill="none" stroke="black" d="M686,-122.22C686,-122.22 686,-143.73 686,-143.73"/>
<polygon fill="black" stroke="black" points="682.5,-143.73 686,-153.73 689.5,-143.73 682.5,-143.73"/>
</g>
<!-- SharedModule -->
<g id="node6" class="node">
<title>SharedModule</title>
<polygon fill="#8dd3c7" stroke="black" points="866.42,-122 863.42,-126 842.42,-126 839.42,-122 767.58,-122 767.58,-86 866.42,-86 866.42,-122"/>
<text text-anchor="middle" x="817" y="-99.8" font-family="Times,serif" font-size="14.00">SharedModule</text>
</g>
<!-- SharedModule&#45;&gt;ApplicationModule -->
<g id="edge4" class="edge">
<title>SharedModule&#45;&gt;ApplicationModule</title>
<path fill="none" stroke="black" d="M838.09,-122.25C838.09,-145.02 838.09,-181 838.09,-181 838.09,-181 758.74,-181 758.74,-181"/>
<polygon fill="black" stroke="black" points="758.74,-177.5 748.74,-181 758.74,-184.5 758.74,-177.5"/>
</g>
<!-- AuthModule -->
<g id="node15" class="node">
<title>AuthModule</title>
<polygon fill="#8dd3c7" stroke="black" points="1185.55,-190 1182.55,-194 1161.55,-194 1158.55,-190 1098.45,-190 1098.45,-154 1185.55,-154 1185.55,-190"/>
<text text-anchor="middle" x="1142" y="-167.8" font-family="Times,serif" font-size="14.00">AuthModule</text>
</g>
<!-- SharedModule&#45;&gt;AuthModule -->
<g id="edge13" class="edge">
<title>SharedModule&#45;&gt;AuthModule</title>
<path fill="none" stroke="black" d="M852.15,-122.22C852.15,-142.37 852.15,-172 852.15,-172 852.15,-172 1088.29,-172 1088.29,-172"/>
<polygon fill="black" stroke="black" points="1088.29,-175.5 1098.29,-172 1088.29,-168.5 1088.29,-175.5"/>
</g>
<!-- DashboardModule -->
<g id="node18" class="node">
<title>DashboardModule</title>
<polygon fill="#8dd3c7" stroke="black" points="1753.19,-190 1750.19,-194 1729.19,-194 1726.19,-190 1632.81,-190 1632.81,-154 1753.19,-154 1753.19,-190"/>
<text text-anchor="middle" x="1693" y="-167.8" font-family="Times,serif" font-size="14.00">DashboardModule</text>
</g>
<!-- SharedModule&#45;&gt;DashboardModule -->
<g id="edge16" class="edge">
<title>SharedModule&#45;&gt;DashboardModule</title>
<path fill="none" stroke="black" d="M809.97,-122.03C809.97,-128.85 809.97,-135 809.97,-135 809.97,-135 1672.97,-135 1672.97,-135 1672.97,-135 1672.97,-143.93 1672.97,-143.93"/>
<polygon fill="black" stroke="black" points="1669.47,-143.93 1672.97,-153.93 1676.47,-143.93 1669.47,-143.93"/>
</g>
<!-- HomepageModule -->
<g id="node29" class="node">
<title>HomepageModule</title>
<polygon fill="#8dd3c7" stroke="black" points="2792.19,-190 2789.19,-194 2768.19,-194 2765.19,-190 2671.81,-190 2671.81,-154 2792.19,-154 2792.19,-190"/>
<text text-anchor="middle" x="2732" y="-167.8" font-family="Times,serif" font-size="14.00">HomepageModule</text>
</g>
<!-- SharedModule&#45;&gt;HomepageModule -->
<g id="edge27" class="edge">
<title>SharedModule&#45;&gt;HomepageModule</title>
<path fill="none" stroke="black" d="M824.03,-122.17C824.03,-126.05 824.03,-129 824.03,-129 824.03,-129 2689.25,-129 2689.25,-129 2689.25,-129 2689.25,-143.51 2689.25,-143.51"/>
<polygon fill="black" stroke="black" points="2685.75,-143.51 2689.25,-153.51 2692.75,-143.51 2685.75,-143.51"/>
</g>
<!-- NebularModule  -->
<g id="node35" class="node">
<title>NebularModule </title>
<polygon fill="#fb8072" stroke="black" points="296.14,-190 187.86,-190 187.86,-154 296.14,-154 296.14,-190"/>
<text text-anchor="middle" x="242" y="-167.8" font-family="Times,serif" font-size="14.00">NebularModule </text>
</g>
<!-- SharedModule&#45;&gt;NebularModule  -->
<g id="edge31" class="edge">
<title>SharedModule&#45;&gt;NebularModule </title>
<path fill="none" stroke="black" stroke-dasharray="5,2" d="M781.85,-122.11C781.85,-131.9 781.85,-142 781.85,-142 781.85,-142 242,-142 242,-142 242,-142 242,-143.86 242,-143.86"/>
<polygon fill="black" stroke="black" points="238.5,-143.86 242,-153.86 245.5,-143.86 238.5,-143.86"/>
</g>
<!-- AppComponent -->
<g id="node7" class="node">
<title>AppComponent</title>
<polygon fill="#ffffb3" stroke="black" points="3951.94,-122 3846.06,-122 3846.06,-86 3951.94,-86 3951.94,-122"/>
<text text-anchor="middle" x="3899" y="-99.8" font-family="Times,serif" font-size="14.00">AppComponent</text>
</g>
<!-- AppModule -->
<g id="node8" class="node">
<title>AppModule</title>
<polygon fill="#8dd3c7" stroke="black" points="3885.66,-190 3882.66,-194 3861.66,-194 3858.66,-190 3802.34,-190 3802.34,-154 3885.66,-154 3885.66,-190"/>
<text text-anchor="middle" x="3844" y="-167.8" font-family="Times,serif" font-size="14.00">AppModule</text>
</g>
<!-- AppComponent&#45;&gt;AppModule -->
<g id="edge5" class="edge">
<title>AppComponent&#45;&gt;AppModule</title>
<path fill="none" stroke="black" d="M3866.05,-122.22C3866.05,-122.22 3866.05,-143.73 3866.05,-143.73"/>
<polygon fill="black" stroke="black" points="3862.55,-143.73 3866.05,-153.73 3869.55,-143.73 3862.55,-143.73"/>
</g>
<!-- AppComponent  -->
<g id="node10" class="node">
<title>AppComponent </title>
<polygon fill="#80b1d3" stroke="black" points="3898.44,-258 3789.56,-258 3789.56,-222 3898.44,-222 3898.44,-258"/>
<text text-anchor="middle" x="3844" y="-235.8" font-family="Times,serif" font-size="14.00">AppComponent </text>
</g>
<!-- AppModule&#45;&gt;AppComponent  -->
<g id="edge7" class="edge">
<title>AppModule&#45;&gt;AppComponent </title>
<path fill="none" stroke="black" stroke-dasharray="1,5" d="M3844,-190.22C3844,-190.22 3844,-211.73 3844,-211.73"/>
<polygon fill="black" stroke="black" points="3840.5,-211.73 3844,-221.73 3847.5,-211.73 3840.5,-211.73"/>
</g>
<!-- AppRouting -->
<g id="node9" class="node">
<title>AppRouting</title>
<polygon fill="#8dd3c7" stroke="black" points="3821.72,-122 3818.72,-126 3797.72,-126 3794.72,-122 3736.28,-122 3736.28,-86 3821.72,-86 3821.72,-122"/>
<text text-anchor="middle" x="3779" y="-99.8" font-family="Times,serif" font-size="14.00">AppRouting</text>
</g>
<!-- AppRouting&#45;&gt;AppModule -->
<g id="edge6" class="edge">
<title>AppRouting&#45;&gt;AppModule</title>
<path fill="none" stroke="black" d="M3811.89,-122.22C3811.89,-122.22 3811.89,-143.73 3811.89,-143.73"/>
<polygon fill="black" stroke="black" points="3808.39,-143.73 3811.89,-153.73 3815.39,-143.73 3808.39,-143.73"/>
</g>
<!-- AuthComponent -->
<g id="node11" class="node">
<title>AuthComponent</title>
<polygon fill="#ffffb3" stroke="black" points="1261.83,-122 1152.17,-122 1152.17,-86 1261.83,-86 1261.83,-122"/>
<text text-anchor="middle" x="1207" y="-99.8" font-family="Times,serif" font-size="14.00">AuthComponent</text>
</g>
<!-- AuthComponent&#45;&gt;AuthModule -->
<g id="edge8" class="edge">
<title>AuthComponent&#45;&gt;AuthModule</title>
<path fill="none" stroke="black" d="M1169.05,-122.22C1169.05,-122.22 1169.05,-143.73 1169.05,-143.73"/>
<polygon fill="black" stroke="black" points="1165.55,-143.73 1169.05,-153.73 1172.55,-143.73 1165.55,-143.73"/>
</g>
<!-- LoginComponent -->
<g id="node12" class="node">
<title>LoginComponent</title>
<polygon fill="#ffffb3" stroke="black" points="1134.28,-122 1019.72,-122 1019.72,-86 1134.28,-86 1134.28,-122"/>
<text text-anchor="middle" x="1077" y="-99.8" font-family="Times,serif" font-size="14.00">LoginComponent</text>
</g>
<!-- LoginComponent&#45;&gt;AuthModule -->
<g id="edge9" class="edge">
<title>LoginComponent&#45;&gt;AuthModule</title>
<path fill="none" stroke="black" d="M1116.31,-122.22C1116.31,-122.22 1116.31,-143.73 1116.31,-143.73"/>
<polygon fill="black" stroke="black" points="1112.81,-143.73 1116.31,-153.73 1119.81,-143.73 1112.81,-143.73"/>
</g>
<!-- RegisterComponent -->
<g id="node13" class="node">
<title>RegisterComponent</title>
<polygon fill="#ffffb3" stroke="black" points="1591.98,-122 1464.02,-122 1464.02,-86 1591.98,-86 1591.98,-122"/>
<text text-anchor="middle" x="1528" y="-99.8" font-family="Times,serif" font-size="14.00">RegisterComponent</text>
</g>
<!-- RegisterComponent&#45;&gt;AuthModule -->
<g id="edge10" class="edge">
<title>RegisterComponent&#45;&gt;AuthModule</title>
<path fill="none" stroke="black" d="M1528,-122.29C1528,-144.21 1528,-178 1528,-178 1528,-178 1195.9,-178 1195.9,-178"/>
<polygon fill="black" stroke="black" points="1195.9,-174.5 1185.9,-178 1195.9,-181.5 1195.9,-174.5"/>
</g>
<!-- ResetPasswordComponent -->
<g id="node14" class="node">
<title>ResetPasswordComponent</title>
<polygon fill="#ffffb3" stroke="black" points="1446.09,-122 1279.91,-122 1279.91,-86 1446.09,-86 1446.09,-122"/>
<text text-anchor="middle" x="1363" y="-99.8" font-family="Times,serif" font-size="14.00">ResetPasswordComponent</text>
</g>
<!-- ResetPasswordComponent&#45;&gt;AuthModule -->
<g id="edge11" class="edge">
<title>ResetPasswordComponent&#45;&gt;AuthModule</title>
<path fill="none" stroke="black" d="M1363,-122.27C1363,-140.56 1363,-166 1363,-166 1363,-166 1195.66,-166 1195.66,-166"/>
<polygon fill="black" stroke="black" points="1195.66,-162.5 1185.66,-166 1195.66,-169.5 1195.66,-162.5"/>
</g>
<!-- AuthRouting -->
<g id="node16" class="node">
<title>AuthRouting</title>
<polygon fill="#8dd3c7" stroke="black" points="995.62,-122 992.62,-126 971.62,-126 968.62,-122 906.38,-122 906.38,-86 995.62,-86 995.62,-122"/>
<text text-anchor="middle" x="951" y="-99.8" font-family="Times,serif" font-size="14.00">AuthRouting</text>
</g>
<!-- AuthRouting&#45;&gt;AuthModule -->
<g id="edge12" class="edge">
<title>AuthRouting&#45;&gt;AuthModule</title>
<path fill="none" stroke="black" d="M951,-122.02C951,-139.37 951,-163 951,-163 951,-163 1088.18,-163 1088.18,-163"/>
<polygon fill="black" stroke="black" points="1088.18,-166.5 1098.18,-163 1088.18,-159.5 1088.18,-166.5"/>
</g>
<!-- DashboardComponent -->
<g id="node17" class="node">
<title>DashboardComponent</title>
<polygon fill="#ffffb3" stroke="black" points="1919.97,-122 1778.03,-122 1778.03,-86 1919.97,-86 1919.97,-122"/>
<text text-anchor="middle" x="1849" y="-99.8" font-family="Times,serif" font-size="14.00">DashboardComponent</text>
</g>
<!-- DashboardComponent&#45;&gt;DashboardModule -->
<g id="edge14" class="edge">
<title>DashboardComponent&#45;&gt;DashboardModule</title>
<path fill="none" stroke="black" d="M1849,-122.15C1849,-145.76 1849,-184 1849,-184 1849,-184 1763.31,-184 1763.31,-184"/>
<polygon fill="black" stroke="black" points="1763.31,-180.5 1753.31,-184 1763.31,-187.5 1763.31,-180.5"/>
</g>
<!-- DashboardRouting -->
<g id="node19" class="node">
<title>DashboardRouting</title>
<polygon fill="#8dd3c7" stroke="black" points="1753.76,-122 1750.76,-126 1729.76,-126 1726.76,-122 1632.24,-122 1632.24,-86 1753.76,-86 1753.76,-122"/>
<text text-anchor="middle" x="1693" y="-99.8" font-family="Times,serif" font-size="14.00">DashboardRouting</text>
</g>
<!-- DashboardRouting&#45;&gt;DashboardModule -->
<g id="edge15" class="edge">
<title>DashboardRouting&#45;&gt;DashboardModule</title>
<path fill="none" stroke="black" d="M1713.03,-122.22C1713.03,-122.22 1713.03,-143.73 1713.03,-143.73"/>
<polygon fill="black" stroke="black" points="1709.53,-143.73 1713.03,-153.73 1716.53,-143.73 1709.53,-143.73"/>
</g>
<!-- AboutComponent -->
<g id="node20" class="node">
<title>AboutComponent</title>
<polygon fill="#ffffb3" stroke="black" points="2858.33,-122 2741.67,-122 2741.67,-86 2858.33,-86 2858.33,-122"/>
<text text-anchor="middle" x="2800" y="-99.8" font-family="Times,serif" font-size="14.00">AboutComponent</text>
</g>
<!-- AboutComponent&#45;&gt;HomepageModule -->
<g id="edge17" class="edge">
<title>AboutComponent&#45;&gt;HomepageModule</title>
<path fill="none" stroke="black" d="M2766.97,-122.22C2766.97,-122.22 2766.97,-143.73 2766.97,-143.73"/>
<polygon fill="black" stroke="black" points="2763.47,-143.73 2766.97,-153.73 2770.47,-143.73 2763.47,-143.73"/>
</g>
<!-- FooterComponent -->
<g id="node21" class="node">
<title>FooterComponent</title>
<polygon fill="#ffffb3" stroke="black" points="2723.88,-122 2606.12,-122 2606.12,-86 2723.88,-86 2723.88,-122"/>
<text text-anchor="middle" x="2665" y="-99.8" font-family="Times,serif" font-size="14.00">FooterComponent</text>
</g>
<!-- FooterComponent&#45;&gt;HomepageModule -->
<g id="edge18" class="edge">
<title>FooterComponent&#45;&gt;HomepageModule</title>
<path fill="none" stroke="black" d="M2706.6,-122.22C2706.6,-122.22 2706.6,-143.73 2706.6,-143.73"/>
<polygon fill="black" stroke="black" points="2703.1,-143.73 2706.6,-153.73 2710.1,-143.73 2703.1,-143.73"/>
</g>
<!-- HeaderAppNameComponent -->
<g id="node22" class="node">
<title>HeaderAppNameComponent</title>
<polygon fill="#ffffb3" stroke="black" points="2587.78,-122 2408.22,-122 2408.22,-86 2587.78,-86 2587.78,-122"/>
<text text-anchor="middle" x="2498" y="-99.8" font-family="Times,serif" font-size="14.00">HeaderAppNameComponent</text>
</g>
<!-- HeaderAppNameComponent&#45;&gt;HomepageModule -->
<g id="edge19" class="edge">
<title>HeaderAppNameComponent&#45;&gt;HomepageModule</title>
<path fill="none" stroke="black" d="M2498,-122.03C2498,-138.4 2498,-160 2498,-160 2498,-160 2661.74,-160 2661.74,-160"/>
<polygon fill="black" stroke="black" points="2661.74,-163.5 2671.74,-160 2661.74,-156.5 2661.74,-163.5"/>
</g>
<!-- HeaderComponent -->
<g id="node23" class="node">
<title>HeaderComponent</title>
<polygon fill="#ffffb3" stroke="black" points="2389.74,-122 2268.26,-122 2268.26,-86 2389.74,-86 2389.74,-122"/>
<text text-anchor="middle" x="2329" y="-99.8" font-family="Times,serif" font-size="14.00">HeaderComponent</text>
</g>
<!-- HeaderComponent&#45;&gt;HomepageModule -->
<g id="edge20" class="edge">
<title>HeaderComponent&#45;&gt;HomepageModule</title>
<path fill="none" stroke="black" d="M2329,-122.27C2329,-140.56 2329,-166 2329,-166 2329,-166 2661.67,-166 2661.67,-166"/>
<polygon fill="black" stroke="black" points="2661.67,-169.5 2671.67,-166 2661.67,-162.5 2661.67,-169.5"/>
</g>
<!-- HeaderGoToAppComponent -->
<g id="node24" class="node">
<title>HeaderGoToAppComponent</title>
<polygon fill="#ffffb3" stroke="black" points="3696.01,-122 3517.99,-122 3517.99,-86 3696.01,-86 3696.01,-122"/>
<text text-anchor="middle" x="3607" y="-99.8" font-family="Times,serif" font-size="14.00">HeaderGoToAppComponent</text>
</g>
<!-- HeaderGoToAppComponent&#45;&gt;HomepageModule -->
<g id="edge21" class="edge">
<title>HeaderGoToAppComponent&#45;&gt;HomepageModule</title>
<path fill="none" stroke="black" d="M3607,-122.15C3607,-145.76 3607,-184 3607,-184 3607,-184 2802.14,-184 2802.14,-184"/>
<polygon fill="black" stroke="black" points="2802.14,-180.5 2792.14,-184 2802.14,-187.5 2802.14,-180.5"/>
</g>
<!-- HeaderMenuComponent -->
<g id="node25" class="node">
<title>HeaderMenuComponent</title>
<polygon fill="#ffffb3" stroke="black" points="3500.4,-122 3345.6,-122 3345.6,-86 3500.4,-86 3500.4,-122"/>
<text text-anchor="middle" x="3423" y="-99.8" font-family="Times,serif" font-size="14.00">HeaderMenuComponent</text>
</g>
<!-- HeaderMenuComponent&#45;&gt;HomepageModule -->
<g id="edge22" class="edge">
<title>HeaderMenuComponent&#45;&gt;HomepageModule</title>
<path fill="none" stroke="black" d="M3423,-122.29C3423,-144.21 3423,-178 3423,-178 3423,-178 2802.11,-178 2802.11,-178"/>
<polygon fill="black" stroke="black" points="2802.11,-174.5 2792.11,-178 2802.11,-181.5 2802.11,-174.5"/>
</g>
<!-- HeroBannerComponent -->
<g id="node26" class="node">
<title>HeroBannerComponent</title>
<polygon fill="#ffffb3" stroke="black" points="3327.74,-122 3178.26,-122 3178.26,-86 3327.74,-86 3327.74,-122"/>
<text text-anchor="middle" x="3253" y="-99.8" font-family="Times,serif" font-size="14.00">HeroBannerComponent</text>
</g>
<!-- HeroBannerComponent&#45;&gt;HomepageModule -->
<g id="edge23" class="edge">
<title>HeroBannerComponent&#45;&gt;HomepageModule</title>
<path fill="none" stroke="black" d="M3253,-122.22C3253,-142.37 3253,-172 3253,-172 3253,-172 2802.27,-172 2802.27,-172"/>
<polygon fill="black" stroke="black" points="2802.27,-168.5 2792.27,-172 2802.27,-175.5 2802.27,-168.5"/>
</g>
<!-- HomepageComponent -->
<g id="node27" class="node">
<title>HomepageComponent</title>
<polygon fill="#ffffb3" stroke="black" points="3159.97,-122 3018.03,-122 3018.03,-86 3159.97,-86 3159.97,-122"/>
<text text-anchor="middle" x="3089" y="-99.8" font-family="Times,serif" font-size="14.00">HomepageComponent</text>
</g>
<!-- HomepageComponent&#45;&gt;HomepageModule -->
<g id="edge24" class="edge">
<title>HomepageComponent&#45;&gt;HomepageModule</title>
<path fill="none" stroke="black" d="M3089,-122.27C3089,-140.56 3089,-166 3089,-166 3089,-166 2802.16,-166 2802.16,-166"/>
<polygon fill="black" stroke="black" points="2802.16,-162.5 2792.16,-166 2802.16,-169.5 2802.16,-162.5"/>
</g>
<!-- SectionComponent -->
<g id="node28" class="node">
<title>SectionComponent</title>
<polygon fill="#ffffb3" stroke="black" points="2999.83,-122 2876.17,-122 2876.17,-86 2999.83,-86 2999.83,-122"/>
<text text-anchor="middle" x="2938" y="-99.8" font-family="Times,serif" font-size="14.00">SectionComponent</text>
</g>
<!-- SectionComponent&#45;&gt;HomepageModule -->
<g id="edge25" class="edge">
<title>SectionComponent&#45;&gt;HomepageModule</title>
<path fill="none" stroke="black" d="M2938,-122.03C2938,-138.4 2938,-160 2938,-160 2938,-160 2802.14,-160 2802.14,-160"/>
<polygon fill="black" stroke="black" points="2802.14,-156.5 2792.14,-160 2802.14,-163.5 2802.14,-156.5"/>
</g>
<!-- HomepageRouting -->
<g id="node30" class="node">
<title>HomepageRouting</title>
<polygon fill="#8dd3c7" stroke="black" points="2243.76,-122 2240.76,-126 2219.76,-126 2216.76,-122 2122.24,-122 2122.24,-86 2243.76,-86 2243.76,-122"/>
<text text-anchor="middle" x="2183" y="-99.8" font-family="Times,serif" font-size="14.00">HomepageRouting</text>
</g>
<!-- HomepageRouting&#45;&gt;HomepageModule -->
<g id="edge26" class="edge">
<title>HomepageRouting&#45;&gt;HomepageModule</title>
<path fill="none" stroke="black" d="M2183,-122.22C2183,-142.37 2183,-172 2183,-172 2183,-172 2661.68,-172 2661.68,-172"/>
<polygon fill="black" stroke="black" points="2661.68,-175.5 2671.68,-172 2661.68,-168.5 2661.68,-175.5"/>
</g>
<!-- SectionService -->
<g id="node31" class="node">
<title>SectionService</title>
<ellipse fill="#fdb462" stroke="black" cx="2029" cy="-104" rx="68.92" ry="18"/>
<text text-anchor="middle" x="2029" y="-99.8" font-family="Times,serif" font-size="14.00">SectionService</text>
</g>
<!-- SectionService&#45;&gt;HomepageModule -->
<g id="edge28" class="edge">
<title>SectionService&#45;&gt;HomepageModule</title>
<path fill="none" stroke="black" d="M2029,-122.29C2029,-144.21 2029,-178 2029,-178 2029,-178 2661.76,-178 2661.76,-178"/>
<polygon fill="black" stroke="black" points="2661.76,-181.5 2671.76,-178 2661.76,-174.5 2661.76,-181.5"/>
</g>
<!-- SettingsComponent -->
<g id="node32" class="node">
<title>SettingsComponent</title>
<polygon fill="#ffffb3" stroke="black" points="4118.45,-122 3991.55,-122 3991.55,-86 4118.45,-86 4118.45,-122"/>
<text text-anchor="middle" x="4055" y="-99.8" font-family="Times,serif" font-size="14.00">SettingsComponent</text>
</g>
<!-- SettingsModule -->
<g id="node33" class="node">
<title>SettingsModule</title>
<polygon fill="#8dd3c7" stroke="black" points="4107.16,-190 4104.16,-194 4083.16,-194 4080.16,-190 4002.84,-190 4002.84,-154 4107.16,-154 4107.16,-190"/>
<text text-anchor="middle" x="4055" y="-167.8" font-family="Times,serif" font-size="14.00">SettingsModule</text>
</g>
<!-- SettingsComponent&#45;&gt;SettingsModule -->
<g id="edge29" class="edge">
<title>SettingsComponent&#45;&gt;SettingsModule</title>
<path fill="none" stroke="black" d="M4055,-122.22C4055,-122.22 4055,-143.73 4055,-143.73"/>
<polygon fill="black" stroke="black" points="4051.5,-143.73 4055,-153.73 4058.5,-143.73 4051.5,-143.73"/>
</g>
<!-- NebularModule -->
<g id="node34" class="node">
<title>NebularModule</title>
<polygon fill="#8dd3c7" stroke="black" points="424.14,-190 421.14,-194 400.14,-194 397.14,-190 319.86,-190 319.86,-154 424.14,-154 424.14,-190"/>
<text text-anchor="middle" x="372" y="-167.8" font-family="Times,serif" font-size="14.00">NebularModule</text>
</g>
<!-- NebularModule&#45;&gt;SharedModule -->
<g id="edge30" class="edge">
<title>NebularModule&#45;&gt;SharedModule</title>
<path fill="none" stroke="black" d="M372,-153.81C372,-150.46 372,-148 372,-148 372,-148 795.91,-148 795.91,-148 795.91,-148 795.91,-132.15 795.91,-132.15"/>
<polygon fill="black" stroke="black" points="799.41,-132.15 795.91,-122.15 792.41,-132.15 799.41,-132.15"/>
</g>
</g>
</svg>
